<mxfile host="app.diagrams.net" modified="2023-10-25T12:14:06.045Z" agent="Mozilla/5.0 (Windows NT 10.0; Win64; x64) AppleWebKit/537.36 (KHTML, like Gecko) Chrome/118.0.0.0 Safari/537.36" version="22.0.8" etag="alFB0p-scEZ-N27cfv_q" type="github">
  <diagram name="PÃ¡gina-1" id="wSs1eYZL7Z4dIUvzZ4_2">
    <mxGraphModel>
      <root>
        <mxCell id="0" />
        <mxCell id="1" parent="0" />
      </root>
    </mxGraphModel>
  </diagram>
</mxfile>
